{
  "accessors": [
    {
      "bufferView": 2,
      "componentType": 5126,
      "count": 8794,
      "max": [
        1.9223999977111816,
        9.567299842834473,
        7.220600128173828
      ],
      "min": [
        -1.9223999977111816,
        -9.567299842834473,
        0.04749999940395355
      ],
      "type": "VEC3"
    },
    {
      "bufferView": 2,
      "byteOffset": 105528,
      "componentType": 5126,
      "count": 8794,
      "max": [
        0.9999971389770508,
        0.999289870262146,
        0.9999352693557739
      ],
      "min": [
        -0.9999994039535522,
        -0.9999510049819946,
        -0.9999821186065674
      ],
      "type": "VEC3"
    },
    {
      "bufferView": 3,
      "componentType": 5126,
      "count": 8794,
      "max": [
        0.9999980330467224,
        0.9999876618385315,
        0.9998447895050049,
        1.0
      ],
      "min": [
        -0.9999643564224243,
        -0.9993414282798767,
        -0.9998161196708679,
        -1.0
      ],
      "type": "VEC4"
    },
    {
      "bufferView": 1,
      "componentType": 5126,
      "count": 8794,
      "max": [
        0.9975000023841858,
        0.9980999827384949
      ],
      "min": [
        0.009999999776482582,
        0.002300000051036477
      ],
      "type": "VEC2"
    },
    {
      "bufferView": 0,
      "componentType": 5125,
      "count": 42096,
      "type": "SCALAR"
    }
  ],
  "asset": {
    "extras": {
      "author": "shedmon (https://sketchfab.com/shedmon)",
      "license": "CC-BY-4.0 (http://creativecommons.org/licenses/by/4.0/)",
      "source": "https://sketchfab.com/3d-models/fish-skeleton-d9b138827dab40139bc3fc22d3914a52",
      "title": "Fish Skeleton"
    },
    "generator": "Sketchfab-10.50.0",
    "version": "2.0"
  },
  "bufferViews": [
    {
      "buffer": 0,
      "byteLength": 168384,
      "name": "floatBufferViews",
      "target": 34963
    },
    {
      "buffer": 0,
      "byteLength": 70352,
      "byteOffset": 168384,
      "byteStride": 8,
      "name": "floatBufferViews",
      "target": 34962
    },
    {
      "buffer": 0,
      "byteLength": 211056,
      "byteOffset": 238736,
      "byteStride": 12,
      "name": "floatBufferViews",
      "target": 34962
    },
    {
      "buffer": 0,
      "byteLength": 140704,
      "byteOffset": 449792,
      "byteStride": 16,
      "name": "floatBufferViews",
      "target": 34962
    }
  ],
  "buffers": [
    {
      "byteLength": 590496,
      "uri": "scene.bin"
    }
  ],
  "images": [
    {
      "uri": "textures/fish_baseColor.jpeg"
    },
    {
      "uri": "textures/fish_metallicRoughness.png"
    },
    {
      "uri": "textures/fish_normal.png"
    }
  ],
  "materials": [
    {
      "doubleSided": true,
      "name": "fish",
      "normalTexture": {
        "index": 2
      },
      "occlusionTexture": {
        "index": 1
      },
      "pbrMetallicRoughness": {
        "baseColorTexture": {
          "index": 0
        },
        "metallicRoughnessTexture": {
          "index": 1
        }
      }
    }
  ],
  "meshes": [
    {
      "name": "Object_0",
      "primitives": [
        {
          "attributes": {
            "NORMAL": 1,
            "POSITION": 0,
            "TANGENT": 2,
            "TEXCOORD_0": 3
          },
          "indices": 4,
          "material": 0,
          "mode": 4
        }
      ]
    }
  ],
  "nodes": [
    {
      "children": [
        1
      ],
      "matrix": [
        1.0,
        0.0,
        0.0,
        0.0,
        0.0,
        -0.08778259903192498,
        -0.996139645576477,
        0.0,
        0.0,
        0.996139645576477,
        -0.08778259903192498,
        0.0,
        0.0,
        0.014027990400791097,
        0.31900590658187866,
        1.0
      ],
      "name": "Sketchfab_model"
    },
    {
      "children": [
        2
      ],
      "name": "Fish_low.obj.cleaner.materialmerger.gles"
    },
    {
      "mesh": 0,
      "name": "Object_2"
    }
  ],
  "samplers": [
    {
      "magFilter": 9729,
      "minFilter": 9987,
      "wrapS": 10497,
      "wrapT": 10497
    }
  ],
  "scene": 0,
  "scenes": [
    {
      "name": "Sketchfab_Scene",
      "nodes": [
        0
      ]
    }
  ],
  "textures": [
    {
      "sampler": 0,
      "source": 0
    },
    {
      "sampler": 0,
      "source": 1
    },
    {
      "sampler": 0,
      "source": 2
    }
  ]
}
