mtllib cube.mtl

v -0.500000 -0.500000  0.500000		# V1
v  0.500000 -0.500000  0.500000		# V2
v -0.500000  0.500000  0.500000		# V3
v  0.500000  0.500000  0.500000		# V4
v -0.500000  0.500000 -0.500000		# V5
v  0.500000  0.500000 -0.500000		# V6
v -0.500000 -0.500000 -0.500000		# V7
v  0.500000 -0.500000 -0.500000		# V7

vt 0.000000 0.000000
vt 1.000000 0.000000
vt 0.000000 1.000000
vt 1.000000 1.000000

vn  0.000000  0.000000  1.000000	# Front
vn  0.000000  1.000000  0.000000	# Top
vn  0.000000  0.000000 -1.000000	# Back
vn  0.000000 -1.000000  0.000000	# Bottom
vn  1.000000  0.000000  0.000000	# Right
vn -1.000000  0.000000  0.000000	# Left

s off
usemtl pattern

#Front
g Front
f 1/1/1 2/2/1 3/3/1
f 3/3/1 2/2/1 4/4/1

#Top
g Top
f 3/1/2 4/2/2 5/3/2
f 5/3/2 4/2/2 6/4/2

#Back
g Back
f 5/4/3 6/3/3 7/2/3
f 7/2/3 6/3/3 8/1/3

#Bottom
g Bottom
f 7/1/4 8/2/4 1/3/4
f 1/3/4 8/2/4 2/4/4

#Right
g Right
f 2/1/5 8/2/5 4/3/5
f 4/3/5 8/2/5 6/4/5

#Left
g Left
f 7/1/6 1/2/6 5/3/6
f 5/3/6 1/2/6 3/4/6